<svg xmlns="http://www.w3.org/2000/svg" viewBox="0 0 189.78 168.92"><defs><style>.cls-1{fill:#c41441;}.cls-2{fill:#fff;}</style></defs><g id="Слой_2" data-name="Слой 2"><g id="Слой_8" data-name="Слой 8"><path class="cls-1" d="M18.51,69.68a77.45,77.45,0,0,1,152.06,0h7.11a84.44,84.44,0,0,0-166.28,0Z"/><path class="cls-1" d="M170.17,101.17a77.45,77.45,0,0,1-151.26,0H11.75a84.47,84.47,0,0,0,165.59,0Z"/><path class="cls-1" d="M144.86,101.17a53,53,0,0,1-101.26,0H40.49a56,56,0,0,0,107.49,0Z"/><path class="cls-1" d="M43.6,69.68a53,53,0,0,1,101.26,0H148a56,56,0,0,0-107.49,0Z"/><path class="cls-1" d="M34.66,69.68a62.52,62.52,0,0,1,121,0h3.09a65.51,65.51,0,0,0-127.2,0Z"/><path class="cls-1" d="M155.66,101.17a62.52,62.52,0,0,1-121,0H31.6a65.51,65.51,0,0,0,127.15,0Z"/><path class="cls-2" d="M11.54,95.16,7.62,88.89H4.14v6.27H0V75.78H8c5,0,7.73,2.5,7.73,6.61v0a5.81,5.81,0,0,1-4.09,5.94l4.57,6.8ZM4.14,79.51v5.82H8c2.21,0,3.59-.81,3.59-2.91v0c0-2-1.38-2.88-3.59-2.88Z"/><path class="cls-2" d="M32.23,75.78v3.87H23.16v3.92h8v3.86h-8V91.3h9.07v3.86H19V75.78Z"/><path class="cls-2" d="M47.74,81.16a6,6,0,0,0-4.87-2h0c-2.24,0-3.61.7-3.61,1.9,0,.84.5,1.48,2.63,1.93l3.75.84c3.81.81,4.82,3.42,4.82,6,0,3.62-3.19,5.72-7.65,5.72h0c-4.12,0-7-1.43-8.52-4.2l3.39-2.47a5.39,5.39,0,0,0,5.21,3h0c2.18,0,3.36-.81,3.36-2.16,0-1.15-.76-1.85-2.38-2.24l-4.31-1.06c-3.22-.79-4.48-2.8-4.48-5.18,0-3.78,3.22-5.74,7.95-5.74h0a9.34,9.34,0,0,1,7.11,2.66Z"/><path class="cls-2" d="M72,95.16H67.65L66.08,91.1H57.65l-1.54,4.06H51.74l7.9-19.38h4.45ZM61.88,80,59,87.46h5.79Z"/><path class="cls-2" d="M78.65,75.78v15.4h9.88v4h-14V75.78Z"/><path class="cls-2" d="M104.47,75.78v3.87H95.39v3.92h8v3.86h-8V91.3h9.08v3.86H91.25V75.78Z"/><path class="cls-2" d="M133.39,95.16H129l-1.57-4.06H119l-1.54,4.06h-4.37L121,75.78h4.46ZM123.25,80l-2.91,7.42h5.8Z"/><path class="cls-2" d="M142.29,90.09l5.27-14.31h4.34l-7.39,19.38h-4.46l-7.39-19.38H137Z"/><path class="cls-2" d="M168.78,75.78v4H163v15.4h-4.12V79.76H153v-4Z"/><path class="cls-2" d="M179.81,75.45c6.19,0,10,4.14,10,10v0c0,5.88-3.78,10-10,10h0c-6.19,0-10-4.15-10-10v0c0-5.85,3.78-10,10-10Zm0,16.18c3.62,0,5.83-2.55,5.83-6.16v0c0-3.58-2.21-6.13-5.83-6.13h0c-3.62,0-5.83,2.55-5.83,6.13v0c0,3.61,2.21,6.16,5.83,6.16Z"/></g></g></svg>